<svg xmlns="http://www.w3.org/2000/svg" width="600" height="436.664" viewBox="0 0 600 436.664"><defs><style>.a{opacity:1;}</style></defs><g class="a" transform="translate(-300 -0.4)"><path fill="#FFFFFF" d="M448.494,65.02V10.3H339.6V65.02H448.494v54.173h54.173V65.02Z" transform="translate(178.591 44.273)"/><path fill="#FFFFFF" d="M423.573,74.473H369.4v54.173h54.173V74.473h54.173V20.3H423.573Z" transform="translate(312.691 89.723)"/><rect fill="#FFFFFF" width="54.173" height="54.173" transform="translate(736.331 0.4)"/><rect fill="#FFFFFF" width="54.173" height="54.173" transform="translate(845.827 164.403)"/><path fill="#FFFFFF" d="M462.52,74.473H353.626v54.173H462.52V182.82H408.346v54.173h-54.72V128.646H300v162.52h53.626v54.72H516.693v-54.72h54.173V128.646H516.693V20.3H462.52Z" transform="translate(0 91.177)"/><rect fill="#FFFFFF" width="54.173" height="54.173" transform="translate(845.827 54.573)"/></g></svg>