<svg xmlns="http://www.w3.org/2000/svg" width="409.1" height="188.1" viewBox="0 0 409.1 188.1"><defs><style>.a{fill:#ededed;}</style></defs><path class="a" d="M359.5,20.3v-10H339.6v10h19.9v9.9h9.9V20.3Z"/><path class="a" d="M379.3,30.2h-9.9v9.9h9.9V30.2h9.9V20.3h-9.9Z"/><rect class="a" width="9.9" height="9.9" transform="translate(379.3 0.4)"/><rect class="a" width="9.9" height="9.9" transform="translate(399.2 30.2)"/><path class="a" d="M329.7,30.2H309.8v9.9h19.9V50h-9.9v9.9h-10V40.1H300V69.8h9.8v10h29.8v-10h9.9V40.1h-9.9V20.3h-9.9Z"/><rect class="a" width="9.9" height="9.9" transform="translate(399.2 10.3)"/><path class="a" d="M39.6.4h84.1v40H39.6v34h81.8v40H39.6v73H0V.4Z"/><path class="a" d="M164.7,0V62.7h37.2v17H146.6V0Z"/><path class="a" d="M291.5,39.9c0,21.9-18.5,39.7-41.2,39.7-22.8,0-41.2-17.8-41.2-39.7S227.6.2,250.4.2,291.5,18,291.5,39.9Zm-65.5,0c0,13,12,24.1,24.3,24.1s24.3-11.1,24.3-24.1-12-24.1-24.3-24.1C238,15.9,226,27,226,39.9Z"/><path class="a" d="M158.9,149.4v37.8H146.5V92.1H172c6.4,0,10.8,1.7,13.5,5,2.6,3.3,3.9,8,3.9,14v19.2c0,6-1.3,10.7-3.9,14s-7.1,5-13.5,5l-13.1.1Zm0-11.2h10.7c3,0,5-.9,6.3-2.6a12.681,12.681,0,0,0,1.9-7.3V112.6c0-2.9-.6-5.1-1.9-6.6-1.2-1.5-3.3-2.3-6.3-2.3H158.9Z"/><path class="a" d="M222.2,187.2l-3.6-22.4H201.7l-3.3,22.4h-12L202,92.1h16.7l15.6,95.1Zm-18.8-33.4H217l-6.5-41.7h-.6Z"/><path class="a" d="M239.9,187.2V92.1h22.7c13.9,0,20.9,7.3,20.9,21.9v50c0,7.9-1.7,13.8-5.3,17.5-3.5,3.8-8.7,5.6-15.6,5.6l-22.7.1Zm21.9-11.6c3.8,0,6.3-1.3,7.5-4a27.905,27.905,0,0,0,1.9-11.2V118.6c0-4.6-.7-8.2-2-10.9s-4-4-8.1-4h-9v71.9Z"/><path class="a" d="M334.1,164.3c0,8-1.9,14-5.6,17.9s-9.1,5.9-16,5.9c-7.2,0-12.7-2.1-16.4-6.2-3.7-4.2-5.6-10.1-5.6-17.8V115.8c0-7.7,1.9-13.8,5.8-18,3.8-4.3,9.2-6.5,16.1-6.5s12.3,2.2,16,6.6c3.8,4.4,5.7,10.5,5.7,18.2v48.2ZM322,114.8c0-3.7-.9-6.6-2.5-8.6a8.932,8.932,0,0,0-7.2-3,8.547,8.547,0,0,0-6.9,2.9c-1.7,1.9-2.5,4.8-2.5,8.5v50.1c0,7.5,3.2,11.3,9.5,11.3a9.344,9.344,0,0,0,7.1-2.7c1.7-1.8,2.5-4.6,2.5-8.4V114.8Z"/><path class="a" d="M372.3,120.1v-5.5c0-3.5-.7-6.3-2.3-8.4-1.5-2-4-3.1-7.5-3.1-3.3,0-5.8.9-7.3,2.9a10.55,10.55,0,0,0-2.3,7v3.7A11.89,11.89,0,0,0,354,122a19.313,19.313,0,0,0,4.3,4.9c1.6,1.2,3.3,2.5,5.2,3.8s3.8,2.6,5.6,3.8c1.9,1.2,3.6,2.5,5.4,3.7a46.1,46.1,0,0,1,4.6,3.6,19.992,19.992,0,0,1,4.9,6.7,27.371,27.371,0,0,1,1.7,10.5v5.9c0,7.4-1.8,13.1-5.3,17.1s-9.4,5.9-17.5,5.9-13.9-2-17.4-6.1-5.3-10-5.3-17.8v-5.5H352v5.6c0,3.9.9,6.9,2.5,8.9,1.7,2,4.4,3,8.2,3a10.51,10.51,0,0,0,7.5-2.6c1.7-1.7,2.6-4.5,2.6-8.3V161a21.7,21.7,0,0,0-.3-3.8,9.643,9.643,0,0,0-1-3,10.732,10.732,0,0,0-1.9-2.6c-.8-.8-1.7-1.7-2.8-2.7a80.226,80.226,0,0,0-9.8-7.3,54.267,54.267,0,0,1-9.2-7.4,30.376,30.376,0,0,1-5.3-7.7,23.66,23.66,0,0,1-1.8-9.7v-4.2c0-6.3,1.7-11.4,5.2-15.4s9-5.9,16.7-5.9A24.474,24.474,0,0,1,373,93.2a15.674,15.674,0,0,1,6.6,5.2,19.675,19.675,0,0,1,3.5,7.9,44.292,44.292,0,0,1,1,9.9v4.2l-11.8-.3Z"/></svg>
